<?xml version="1.0" encoding="utf-8"?>
<!-- Generator: Adobe Illustrator 18.0.0, SVG Export Plug-In . SVG Version: 6.00 Build 0)  -->
<!DOCTYPE svg PUBLIC "-//W3C//DTD SVG 1.1//EN" "http://www.w3.org/Graphics/SVG/1.1/DTD/svg11.dtd">
<svg version="1.1" id="Layer_1" xmlns="http://www.w3.org/2000/svg" xmlns:xlink="http://www.w3.org/1999/xlink" x="0px" y="0px"
	 viewBox="0 0 500 250" enable-background="new 0 0 500 250" xml:space="preserve">
<path fill="#FFFFFF" d="M248.5,35.1c1.2,0.1,2.3,0.1,3.5-0.1c4-0.4,5.2,2.3,6.1,6.6c3.1,15.9,10.5,29.6,23.2,39.9
	c4.4,3.6,1.2,6.1,0,9.2c-1.3,3.4-3.4,3.5-6.6,2.5c-15.9-5.3-31.8-5.2-47.6,0.7c-2.6,1-4.8,1.3-6-1.8c-1.1-2.7-4.6-5.1-0.7-8.6
	c12.7-11.3,18.8-26.1,22.1-42.3C243.2,37.1,244.6,34.7,248.5,35.1z"/>
<path fill="#FFFFFF" d="M289.6,66c-7.7-7.4-11.7-15.6-14.4-25.9c-0.3-1.2,0.8-2.2,1.9-1.8c6.6,2.3,12.4,4.4,18.2,6.7
	c0.6,0.3,1.5,1.2,1,2.9c-1.4,5.6-2.7,11.2-4.2,17.5C291.8,66.4,290.4,66.8,289.6,66z"/>
<path fill="#FFFFFF" d="M235.1,109.3c11.1-3.4,20.9-3.4,32-0.4c0.7,0.2,0.9,1.1,0.4,1.5c-5.2,4.8-9.8,9-14.5,13.1
	c-1,0.9-2.8,0.9-3.8,0c-4.6-3.9-9.1-8-14.4-12.7C234.2,110.4,234.4,109.5,235.1,109.3z"/>
<path fill="#FFFFFF" d="M223.7,39.7c-1.2,10.6-5.3,18.8-11.9,27.2c-0.7,1-2.2,0.7-2.6-0.5c-2.1-6.6-4-12.5-5.7-18.5
	c-0.2-0.7,0.1-1.9,1.6-2.6c5.3-2.3,10.5-4.6,16.5-7.2C222.7,37.7,223.8,38.6,223.7,39.7z"/>
<path fill="#FFFFFF" d="M62,165h9.3v48.5H62V165z"/>
<path fill="#FFFFFF" d="M81.3,213.5v-34.7h9.2v1.9c0,0,4.7-2.8,8.7-2.8c9.7,0,12.2,6.1,12.2,16.7v18.8h-9.3V195
	c0-5.3-0.7-8.7-5.2-8.7c-3.3,0-6.3,1.2-6.3,1.2v25.9H81.3z"/>
<path fill="#FFFFFF" d="M121.3,213.5v-34.7h9.2v1.9c0,0,4.8-2.8,8.2-2.8c3.9,0,6.6,1,8.7,3.3c0,0,6.4-3.3,11.7-3.3
	c9.4,0,12.2,5.5,12.2,16.7v18.8H162V195c0-5.3-0.7-8.7-4.9-8.7c-2.8,0-6.4,1.3-6.4,1.3s0.3,5.2,0.3,7.9v18h-9.3v-17.8
	c0-6.2-0.6-9.4-4.9-9.4c-3.1,0-6.2,1.2-6.2,1.2v25.9H121.3z"/>
<path fill="#FFFFFF" d="M184.4,213.5v-50.1h4.1v17.4c0,0,5.8-2.7,11.2-2.7c9.5,0,11.6,4.4,11.6,17.1v18.2h-4.2v-18
	c0-10.2-1.1-13.6-8-13.6c-5.4,0-10.7,2.4-10.7,2.4v29.3H184.4z"/>
<path fill="#FFFFFF" d="M247.3,207.8c0.2,2.1,2.2,2.8,4.5,3.1l-0.2,3.3c-3.4,0-6-0.7-7.8-2.8c0,0-6.5,2.8-13,2.8
	c-6.1,0-9.5-3.5-9.5-10.5c0-6.4,3.2-9.4,10.2-10.1l11.8-1.2v-3.3c0-5.3-2.4-7.3-6.8-7.3c-5,0-13.1,1-13.1,1l-0.2-3.3
	c0,0,7.6-1.5,13.5-1.5c7.6,0,10.7,3.7,10.7,11V207.8z M231.9,196.9c-4.6,0.4-6.4,2.6-6.4,6.8c0,4.4,1.9,7,5.8,7
	c5.6,0,11.9-2.4,11.9-2.4v-12.6L231.9,196.9z"/>
<path fill="#FFFFFF" d="M280.8,179.1l-0.2,3.5c0,0-5.5-0.7-8.1-0.7c-8.3,0-10.7,3.7-10.7,13.7c0,10.9,1.7,14.9,10.7,14.9
	c2.6,0,8.3-0.6,8.3-0.6l0.1,3.5c0,0-6.2,0.8-9.2,0.8c-11.2,0-14.3-5-14.3-18.7c0-12.7,4-17.4,14.4-17.4
	C274.8,178.2,280.8,179.1,280.8,179.1z"/>
<path fill="#FFFFFF" d="M290.9,213.5v-50.1h4.1v29.8l5.9-0.1l10.7-14.3h4.8l-11.9,15.9l12.4,18.8H312l-11.1-16.7l-6,0.1v16.6H290.9z
	"/>
<path fill="#FFFFFF" d="M346.6,183.1c0,0-7.4-1.1-12-1.1c-4.3,0-8.2,1.2-8.2,5.9c0,3.6,1.7,4.6,9.3,5.9c8.9,1.5,12.2,3.1,12.2,9.7
	c0,8.1-5.1,10.7-13.4,10.7c-4.2,0-11.9-1.2-11.9-1.2l0.3-3.7c0,0,7.8,1.2,11.3,1.2c6,0,9.4-1.4,9.4-6.8c0-4.2-2.1-5.1-9.8-6.2
	c-8-1.2-11.7-2.7-11.7-9.4c0-7.6,6.2-9.8,12.3-9.8c5.2,0,12.3,1.2,12.3,1.2L346.6,183.1z"/>
<path fill="#FFFFFF" d="M358.4,163.5h3.5l-2.8,9.7h-2.6L358.4,163.5z"/>
<path fill="#FFFFFF" d="M380.9,164.1h5.4v49.4h-5.8v-43l-12.7,8.4l-2.6-4.3L380.9,164.1z"/>
<path fill="#FFFFFF" d="M435.2,169.3c0,0-6.7-0.9-13-0.9c-8.6,0-13.3,6.1-13.3,17.1c0,0.1,7-2.9,12.4-2.9c10.9,0,16.6,4.9,16.6,15.4
	c0,10.5-6.3,16.3-17.3,16.3c-12.3,0-17.7-9.7-17.7-25.7c0-17.9,7.6-25.2,19.3-25.2c6.3,0,13.6,1.3,13.6,1.3L435.2,169.3z
	 M408.8,190.6c0.1,10.6,3.2,18.6,11.8,18.6c7.3,0,11.3-4,11.3-11.2c0-6.9-4.1-10.2-11-10.2C415.1,187.7,408.8,190.6,408.8,190.6z"/>
</svg>
